<svg width="39" height="38" viewBox="0 0 39 38" fill="none" xmlns="http://www.w3.org/2000/svg">
<path d="M16.4074 19.0754C15.7136 19.0754 15.1505 19.649 15.1505 20.3557C15.1505 21.0624 15.7136 21.636 16.4074 21.636C17.1012 21.636 17.6642 21.0624 17.6642 20.3557C17.6642 19.649 17.1012 19.0754 16.4074 19.0754ZM22.4404 19.0754C21.7466 19.0754 21.1835 19.649 21.1835 20.3557C21.1835 21.0624 21.7466 21.636 22.4404 21.636C23.1341 21.636 23.6972 21.0624 23.6972 20.3557C23.6972 19.649 23.1341 19.0754 22.4404 19.0754ZM19.4239 9.08899C13.8735 9.08899 9.3689 13.6776 9.3689 19.3315C9.3689 24.9853 13.8735 29.5739 19.4239 29.5739C24.9742 29.5739 29.4788 24.9853 29.4788 19.3315C29.4788 13.6776 24.9742 9.08899 19.4239 9.08899ZM19.4239 27.5254C14.9896 27.5254 11.3799 23.8484 11.3799 19.3315C11.3799 19.0344 11.4 18.7374 11.4302 18.4506C13.8031 17.3751 15.6834 15.3984 16.6688 12.9504C18.4888 15.5725 21.4851 17.283 24.8737 17.283C25.6579 17.283 26.4121 17.1908 27.136 17.0167C27.3472 17.7439 27.4678 18.5223 27.4678 19.3315C27.4678 23.8484 23.8581 27.5254 19.4239 27.5254Z" fill="black"/>
<ellipse cx="10.3369" cy="27.8289" rx="3.72406" ry="3.79351" fill="black"/>
<ellipse cx="7.50678" cy="22.6697" rx="3.72406" ry="3.7935" fill="black"/>
<ellipse cx="8.10272" cy="16.9036" rx="3.72406" ry="3.7935" fill="black"/>
<ellipse cx="10.7837" cy="11.6686" rx="4.17095" ry="4.02112" fill="black"/>
<ellipse cx="15.5507" cy="8.70965" rx="3.72406" ry="3.79351" fill="black"/>
<ellipse cx="21.9562" cy="8.70965" rx="3.72406" ry="3.79351" fill="black"/>
<ellipse cx="27.0209" cy="10.9858" rx="3.72406" ry="3.79351" fill="black"/>
<ellipse cx="30.7448" cy="16.2967" rx="3.72406" ry="3.79351" fill="black"/>
<ellipse cx="31.4897" cy="22.6697" rx="3.72406" ry="3.7935" fill="black"/>
<ellipse cx="28.6594" cy="27.0702" rx="3.72406" ry="3.79351" fill="black"/>
</svg>
